<mxfile host="app.diagrams.net" agent="Mozilla/5.0 (Windows NT 10.0; Win64; x64) AppleWebKit/537.36 (KHTML, like Gecko) Chrome/129.0.0.0 Safari/537.36" version="24.7.17">
  <diagram name="Page-1" id="2YBvvXClWsGukQMizWep">
    <mxGraphModel dx="640" dy="412" grid="0" gridSize="10" guides="1" tooltips="1" connect="1" arrows="1" fold="1" page="1" pageScale="1" pageWidth="850" pageHeight="1100" background="#ffffff" math="0" shadow="0">
      <root>
        <mxCell id="0" />
        <mxCell id="1" parent="0" />
        <mxCell id="aM9ryv3xv72pqoxQDRHE-1" value=":StatisticsGUI" style="shape=umlLifeline;perimeter=lifelinePerimeter;whiteSpace=wrap;html=1;container=0;dropTarget=0;collapsible=0;recursiveResize=0;outlineConnect=0;portConstraint=eastwest;newEdgeStyle={&quot;edgeStyle&quot;:&quot;elbowEdgeStyle&quot;,&quot;elbow&quot;:&quot;vertical&quot;,&quot;curved&quot;:0,&quot;rounded&quot;:0};" parent="1" vertex="1">
          <mxGeometry x="185" y="60" width="100" height="300" as="geometry" />
        </mxCell>
        <mxCell id="aM9ryv3xv72pqoxQDRHE-2" value="" style="html=1;points=[];perimeter=orthogonalPerimeter;outlineConnect=0;targetShapes=umlLifeline;portConstraint=eastwest;newEdgeStyle={&quot;edgeStyle&quot;:&quot;elbowEdgeStyle&quot;,&quot;elbow&quot;:&quot;vertical&quot;,&quot;curved&quot;:0,&quot;rounded&quot;:0};" parent="aM9ryv3xv72pqoxQDRHE-1" vertex="1">
          <mxGeometry x="45" y="70" width="10" height="92" as="geometry" />
        </mxCell>
        <mxCell id="aM9ryv3xv72pqoxQDRHE-5" value=":WaitRoomCapacitySlider" style="shape=umlLifeline;perimeter=lifelinePerimeter;whiteSpace=wrap;html=1;container=0;dropTarget=0;collapsible=0;recursiveResize=0;outlineConnect=0;portConstraint=eastwest;newEdgeStyle={&quot;edgeStyle&quot;:&quot;elbowEdgeStyle&quot;,&quot;elbow&quot;:&quot;vertical&quot;,&quot;curved&quot;:0,&quot;rounded&quot;:0};" parent="1" vertex="1">
          <mxGeometry x="326" y="60" width="139" height="300" as="geometry" />
        </mxCell>
        <mxCell id="aM9ryv3xv72pqoxQDRHE-6" value="" style="html=1;points=[];perimeter=orthogonalPerimeter;outlineConnect=0;targetShapes=umlLifeline;portConstraint=eastwest;newEdgeStyle={&quot;edgeStyle&quot;:&quot;elbowEdgeStyle&quot;,&quot;elbow&quot;:&quot;vertical&quot;,&quot;curved&quot;:0,&quot;rounded&quot;:0};" parent="aM9ryv3xv72pqoxQDRHE-5" vertex="1">
          <mxGeometry x="64.5" y="74" width="10" height="43" as="geometry" />
        </mxCell>
        <mxCell id="99FT_-au7CRat3UAY1YA-2" style="edgeStyle=none;curved=0;rounded=0;orthogonalLoop=1;jettySize=auto;html=1;fontSize=12;startSize=8;endSize=8;" edge="1" parent="1" source="99FT_-au7CRat3UAY1YA-1" target="aM9ryv3xv72pqoxQDRHE-2">
          <mxGeometry relative="1" as="geometry">
            <mxPoint x="102" y="219.99962962962962" as="sourcePoint" />
            <mxPoint x="232" y="152.37" as="targetPoint" />
            <Array as="points">
              <mxPoint x="133" y="152" />
            </Array>
          </mxGeometry>
        </mxCell>
        <mxCell id="99FT_-au7CRat3UAY1YA-3" value="viewTrackStats" style="edgeLabel;html=1;align=center;verticalAlign=middle;resizable=0;points=[];fontSize=12;rotation=0;" vertex="1" connectable="0" parent="99FT_-au7CRat3UAY1YA-2">
          <mxGeometry x="-0.3212" relative="1" as="geometry">
            <mxPoint x="51" y="-15" as="offset" />
          </mxGeometry>
        </mxCell>
        <mxCell id="99FT_-au7CRat3UAY1YA-1" value="ED Manager" style="shape=umlActor;verticalLabelPosition=bottom;verticalAlign=top;html=1;outlineConnect=0;" vertex="1" parent="1">
          <mxGeometry x="86" y="122" width="30" height="60" as="geometry" />
        </mxCell>
        <mxCell id="99FT_-au7CRat3UAY1YA-4" style="edgeStyle=elbowEdgeStyle;curved=0;rounded=0;orthogonalLoop=1;jettySize=auto;html=1;elbow=vertical;fontSize=12;startSize=8;endSize=8;" edge="1" parent="1" source="aM9ryv3xv72pqoxQDRHE-2" target="aM9ryv3xv72pqoxQDRHE-6">
          <mxGeometry relative="1" as="geometry">
            <mxPoint x="351" y="148" as="targetPoint" />
            <Array as="points">
              <mxPoint x="292" y="146" />
            </Array>
          </mxGeometry>
        </mxCell>
        <mxCell id="99FT_-au7CRat3UAY1YA-5" value="waitTimesTooShortLong" style="edgeLabel;html=1;align=center;verticalAlign=middle;resizable=0;points=[];fontSize=12;" vertex="1" connectable="0" parent="99FT_-au7CRat3UAY1YA-4">
          <mxGeometry x="0.2024" y="1" relative="1" as="geometry">
            <mxPoint x="-22" as="offset" />
          </mxGeometry>
        </mxCell>
        <mxCell id="99FT_-au7CRat3UAY1YA-7" style="edgeStyle=elbowEdgeStyle;curved=0;rounded=0;orthogonalLoop=1;jettySize=auto;html=1;elbow=vertical;fontSize=12;startSize=8;endSize=8;" edge="1" parent="1" source="aM9ryv3xv72pqoxQDRHE-6" target="aM9ryv3xv72pqoxQDRHE-2">
          <mxGeometry relative="1" as="geometry">
            <Array as="points">
              <mxPoint x="314" y="166" />
            </Array>
          </mxGeometry>
        </mxCell>
        <mxCell id="99FT_-au7CRat3UAY1YA-8" value="capacityAdjusted" style="edgeLabel;html=1;align=center;verticalAlign=middle;resizable=0;points=[];fontSize=12;" vertex="1" connectable="0" parent="99FT_-au7CRat3UAY1YA-7">
          <mxGeometry x="-0.0498" relative="1" as="geometry">
            <mxPoint as="offset" />
          </mxGeometry>
        </mxCell>
        <mxCell id="99FT_-au7CRat3UAY1YA-9" value=":AutoSchedulerToggle" style="shape=umlLifeline;perimeter=lifelinePerimeter;whiteSpace=wrap;html=1;container=0;dropTarget=0;collapsible=0;recursiveResize=0;outlineConnect=0;portConstraint=eastwest;newEdgeStyle={&quot;edgeStyle&quot;:&quot;elbowEdgeStyle&quot;,&quot;elbow&quot;:&quot;vertical&quot;,&quot;curved&quot;:0,&quot;rounded&quot;:0};" vertex="1" parent="1">
          <mxGeometry x="473" y="60" width="139" height="300" as="geometry" />
        </mxCell>
        <mxCell id="99FT_-au7CRat3UAY1YA-10" value="" style="html=1;points=[];perimeter=orthogonalPerimeter;outlineConnect=0;targetShapes=umlLifeline;portConstraint=eastwest;newEdgeStyle={&quot;edgeStyle&quot;:&quot;elbowEdgeStyle&quot;,&quot;elbow&quot;:&quot;vertical&quot;,&quot;curved&quot;:0,&quot;rounded&quot;:0};" vertex="1" parent="99FT_-au7CRat3UAY1YA-9">
          <mxGeometry x="64.5" y="104" width="10" height="56" as="geometry" />
        </mxCell>
        <mxCell id="99FT_-au7CRat3UAY1YA-12" value="viewStaffSchedulingStats" style="edgeStyle=elbowEdgeStyle;curved=0;rounded=0;orthogonalLoop=1;jettySize=auto;html=1;elbow=vertical;fontSize=12;startSize=8;endSize=8;" edge="1" parent="1" source="aM9ryv3xv72pqoxQDRHE-2" target="99FT_-au7CRat3UAY1YA-10">
          <mxGeometry relative="1" as="geometry">
            <Array as="points">
              <mxPoint x="394" y="187" />
            </Array>
          </mxGeometry>
        </mxCell>
        <mxCell id="99FT_-au7CRat3UAY1YA-13" value="toggledAutoScheduler" style="edgeStyle=elbowEdgeStyle;curved=0;rounded=0;orthogonalLoop=1;jettySize=auto;html=1;elbow=vertical;fontSize=12;startSize=8;endSize=8;" edge="1" parent="1" source="99FT_-au7CRat3UAY1YA-10" target="aM9ryv3xv72pqoxQDRHE-2">
          <mxGeometry relative="1" as="geometry">
            <Array as="points">
              <mxPoint x="395" y="213" />
            </Array>
          </mxGeometry>
        </mxCell>
        <mxCell id="99FT_-au7CRat3UAY1YA-15" value=":WaitRoomManagerGUI" style="shape=umlLifeline;perimeter=lifelinePerimeter;whiteSpace=wrap;html=1;container=0;dropTarget=0;collapsible=0;recursiveResize=0;outlineConnect=0;portConstraint=eastwest;newEdgeStyle={&quot;edgeStyle&quot;:&quot;elbowEdgeStyle&quot;,&quot;elbow&quot;:&quot;vertical&quot;,&quot;curved&quot;:0,&quot;rounded&quot;:0};" vertex="1" parent="1">
          <mxGeometry x="620" y="60" width="130" height="131" as="geometry" />
        </mxCell>
        <mxCell id="99FT_-au7CRat3UAY1YA-21" style="edgeStyle=elbowEdgeStyle;curved=0;rounded=0;orthogonalLoop=1;jettySize=auto;html=1;elbow=vertical;fontSize=12;startSize=8;endSize=8;" edge="1" parent="99FT_-au7CRat3UAY1YA-15" source="99FT_-au7CRat3UAY1YA-16" target="99FT_-au7CRat3UAY1YA-15">
          <mxGeometry relative="1" as="geometry" />
        </mxCell>
        <mxCell id="99FT_-au7CRat3UAY1YA-22" style="edgeStyle=elbowEdgeStyle;curved=0;rounded=0;orthogonalLoop=1;jettySize=auto;html=1;elbow=vertical;fontSize=12;startSize=8;endSize=8;" edge="1" parent="99FT_-au7CRat3UAY1YA-15" source="99FT_-au7CRat3UAY1YA-16" target="99FT_-au7CRat3UAY1YA-15">
          <mxGeometry relative="1" as="geometry" />
        </mxCell>
        <mxCell id="99FT_-au7CRat3UAY1YA-25" style="edgeStyle=elbowEdgeStyle;curved=0;rounded=0;orthogonalLoop=1;jettySize=auto;html=1;elbow=vertical;fontSize=12;startSize=8;endSize=8;" edge="1" parent="99FT_-au7CRat3UAY1YA-15" source="99FT_-au7CRat3UAY1YA-16" target="99FT_-au7CRat3UAY1YA-15">
          <mxGeometry relative="1" as="geometry" />
        </mxCell>
        <mxCell id="99FT_-au7CRat3UAY1YA-16" value="" style="html=1;points=[];perimeter=orthogonalPerimeter;outlineConnect=0;targetShapes=umlLifeline;portConstraint=eastwest;newEdgeStyle={&quot;edgeStyle&quot;:&quot;elbowEdgeStyle&quot;,&quot;elbow&quot;:&quot;vertical&quot;,&quot;curved&quot;:0,&quot;rounded&quot;:0};" vertex="1" parent="99FT_-au7CRat3UAY1YA-15">
          <mxGeometry x="60" y="61" width="10" height="56" as="geometry" />
        </mxCell>
      </root>
    </mxGraphModel>
  </diagram>
</mxfile>
